<?xml version="1.0" encoding="utf-8"?>
<!-- Generator: Adobe Illustrator 26.0.1, SVG Export Plug-In . SVG Version: 6.00 Build 0)  -->
<svg version="1.1" id="Camada_1" xmlns="http://www.w3.org/2000/svg" xmlns:xlink="http://www.w3.org/1999/xlink" x="0px" y="0px"
	 viewBox="0 0 20 20" style="enable-background:new 0 0 20 20;" xml:space="preserve">
<style type="text/css">
	.st0{fill:#72BF44;}
	.st1{fill:#FFFFFF;}
</style>
<g id="Grupo_155" transform="translate(14.142 0) rotate(45)">
	<path id="Retângulo_765" class="st0" d="M4.1,0L4.1,0c5.5,0,10,4.5,10,10l0,0c0,5.5-4.5,10-10,10l0,0c-5.5,0-10-4.5-10-10l0,0
		C-5.9,4.5-1.4,0,4.1,0z"/>
	<g id="Grupo_154" transform="translate(3.5 4)">
		
			<rect id="Retângulo_767" x="-6.4" y="4" transform="matrix(2.535182e-06 1 -1 2.535182e-06 6.6165 5.3317)" class="st1" width="14" height="4"/>
		
			<rect id="Retângulo_766" x="-1.4" y="-1" transform="matrix(2.535182e-06 1 -1 2.535182e-06 6.6165 5.3317)" class="st1" width="4" height="14"/>
	</g>
</g>
</svg>
