<?xml version="1.0" encoding="utf-8"?>
<!-- Generator: Adobe Illustrator 26.0.1, SVG Export Plug-In . SVG Version: 6.00 Build 0)  -->
<svg version="1.1" id="Camada_1" xmlns="http://www.w3.org/2000/svg" xmlns:xlink="http://www.w3.org/1999/xlink" x="0px" y="0px"
	 viewBox="0 0 20 20" style="enable-background:new 0 0 20 20;" xml:space="preserve">
<style type="text/css">
	.st0{fill:#006437;}
	.st1{fill:#FFFFFF;}
</style>
<g id="Grupo_170" transform="translate(-415 -1005)">
	<path id="Retângulo_765" class="st0" d="M425,1005L425,1005c5.5,0,10,4.5,10,10l0,0c0,5.5-4.5,10-10,10l0,0c-5.5,0-10-4.5-10-10
		l0,0C415,1009.5,419.5,1005,425,1005z"/>
	<polygon class="st1" points="432,1013 427,1013 427,1008 423,1008 423,1013 418,1013 418,1017 423,1017 423,1022 427,1022 
		427,1017 432,1017 	"/>
</g>
</svg>
